<svg width="640" height="480" viewBox="0 0 640 480" fill="none" xmlns="http://www.w3.org/2000/svg">
  <rect width="640" height="480" rx="32" fill="#F8F2E8"/>
  <rect x="28" y="28" width="584" height="424" rx="28" fill="url(#bg)"/>
  <circle cx="123" cy="102" r="52" fill="#F3D39B" fill-opacity="0.55"/>
  <circle cx="520" cy="366" r="72" fill="#98CDD0" fill-opacity="0.35"/>
  <rect x="150" y="160" width="170" height="140" rx="20" fill="#CD5C47"/>
  <rect x="168" y="186" width="134" height="86" rx="12" fill="#F6EDE1"/>
  <path d="M202 160C202 128.52 227.52 103 259 103C290.48 103 316 128.52 316 160" stroke="#8F3829" stroke-width="18" stroke-linecap="round"/>
  <rect x="357" y="120" width="130" height="235" rx="28" fill="#1E7A80"/>
  <rect x="370" y="145" width="104" height="170" rx="18" fill="#DFF1F2"/>
  <circle cx="422" cy="332" r="10" fill="#DFF1F2"/>
  <rect x="95" y="312" width="136" height="88" rx="18" fill="#A86B37"/>
  <rect x="109" y="328" width="108" height="18" rx="9" fill="#EED7B5"/>
  <rect x="109" y="355" width="71" height="14" rx="7" fill="#EED7B5"/>
  <rect x="267" y="306" width="72" height="104" rx="26" fill="#D9A441"/>
  <rect x="283" y="248" width="40" height="72" rx="18" fill="#D9A441"/>
  <rect x="289" y="202" width="28" height="54" rx="14" fill="#EFE6D7"/>
  <circle cx="508" cy="184" r="28" fill="#F1C266"/>
  <circle cx="508" cy="184" r="13" fill="#F8F2E8"/>
  <path d="M528 205L555 231" stroke="#5A4634" stroke-width="10" stroke-linecap="round"/>
  <rect x="444" y="240" width="90" height="18" rx="9" transform="rotate(20 444 240)" fill="#5A4634"/>
  <rect x="434" y="258" width="24" height="24" rx="12" fill="#5A4634"/>
  <text x="321" y="72" text-anchor="middle" fill="#1F1A14" font-family="Arial, sans-serif" font-size="28" font-weight="700">Campus Lost &amp; Found</text>
  <defs>
    <linearGradient id="bg" x1="70" y1="46" x2="556" y2="422" gradientUnits="userSpaceOnUse">
      <stop stop-color="#FFF9F0"/>
      <stop offset="1" stop-color="#F2E9DA"/>
    </linearGradient>
  </defs>
</svg>
